<?xml version="1.0" encoding="UTF-8"?>
<svg width="227px" height="208px" viewBox="0 0 227 208" version="1.1" xmlns="http://www.w3.org/2000/svg" xmlns:xlink="http://www.w3.org/1999/xlink">
    <!-- Generator: Sketch 58 (84663) - https://sketch.com -->
    <title>Asset 7</title>
    <desc>Created with Sketch.</desc>
    <g id="Symbols" stroke="none" stroke-width="1" fill="none" fill-rule="evenodd">
        <g id="Logo/vertical-left" transform="translate(-1.000000, 0.000000)">
            <g id="Asset-7">
                <path d="M11.4,197.48 L11.4,166.9 C11.484613,165.784064 11.1691034,164.674463 10.51,163.77 C9.81881135,163.053643 8.84192715,162.686393 7.85,162.77 C7.0397805,162.782719 6.23131489,162.849535 5.43,162.97 C4.83765109,163.072877 4.24007568,163.142984 3.64,163.18 C2.93690909,163.220382 2.24541243,162.987494 1.71,162.53 C1.21985518,162.07215 0.959528749,161.4195 1,160.75 C0.942483193,160.044593 1.21151385,159.351747 1.73,158.87 C2.39099302,158.404474 3.19413632,158.185113 4,158.25 C4.42,158.25 5.65,158.32 7.71,158.46 C9.77,158.6 11.56,158.67 13.11,158.67 C14.8766667,158.67 17.29,158.6 20.35,158.46 C23.41,158.32 25.6,158.25 26.92,158.25 C32.3,158.25 36.3533333,159.4 39.08,161.7 C41.8066667,164 43.1666667,167.433333 43.16,172 C43.2170438,174.152099 42.8076746,176.291053 41.96,178.27 C41.1137269,180.065659 39.8101367,181.607206 38.18,182.74 C36.7105387,183.828068 35.0267126,184.591584 33.24,184.98 C30.3611536,185.5052 27.4350852,185.726415 24.51,185.64 C23.7,185.64 22.81,185.64 21.85,185.64 L20.16,185.64 C19.4024439,185.571321 18.6396796,185.691577 17.94,185.99 C17.517049,186.332243 17.3045077,186.871187 17.38,187.41 L17.38,197.6 C17.2496767,198.763512 17.5759057,199.9322 18.29,200.86 C19.1933021,201.5441 20.3231239,201.858734 21.45,201.74 C22.0677478,201.716452 22.6828326,201.646252 23.29,201.53 C23.9013906,201.421268 24.5194973,201.354446 25.14,201.33 C25.8391637,201.311611 26.5164555,201.574602 27.02,202.06 C27.5202286,202.539566 27.7959948,203.207211 27.78,203.9 C27.8176831,204.678987 27.4363549,205.418764 26.78,205.84 C25.8615086,206.337288 24.8227891,206.569269 23.78,206.51 C22.88,206.51 21.34,206.44 19.16,206.3 C16.91,206 15.2,206 14,206 C12,206 9.91,206.07 7.73,206.21 C5.51,206.35 4.28,206.42 4.02,206.42 C3.21287164,206.48355 2.41003669,206.252646 1.76,205.77 C1.24011445,205.239498 0.974091421,204.510667 1.03,203.77 C1.00847933,203.097791 1.26537451,202.446507 1.74,201.97 C2.23919615,201.493732 2.9106608,201.24103 3.6,201.27 C4.21422126,201.28971 4.82602103,201.356573 5.43,201.47 C5.99681796,201.585743 6.57198499,201.655967 7.15,201.68 C8.33372007,201.775214 9.50948745,201.417838 10.44,200.68 C11.1772127,199.785783 11.5232417,198.632353 11.4,197.48 Z M17.4,178.75 C17.3068439,179.411938 17.6126059,180.066582 18.18,180.42 C19.4054336,180.780873 20.6861776,180.916401 21.96,180.82 C27.6933333,180.82 31.63,180.153333 33.77,178.82 C35.91,177.486667 36.9866667,175.213333 37,172 C37,168.666667 36.0566667,166.29 34.17,164.87 C32.28,163.45 29.07,162.75 24.55,162.75 C21.26,162.75 19.25,162.98 18.55,163.46 C17.85,163.94 17.45,164.98 17.45,166.6 L17.4,178.75 Z" id="Shape" fill="#231F20" fill-rule="nonzero"></path>
                <path d="M49.1,189.45 L49.1,189.66 C49.1,193.58 50.07,196.72 52.01,199.08 C53.8699446,201.415578 56.72607,202.732363 59.71,202.63 C61.4064164,202.695466 63.093742,202.352514 64.63,201.63 C66.0987689,200.814209 67.3477951,199.654399 68.27,198.25 C68.8202813,197.355073 69.2633284,196.398494 69.59,195.4 C70.31,193.5 71.21,192.55 72.3,192.55 C72.9537297,192.533135 73.5846902,192.790596 74.04,193.26 C74.5064118,193.737057 74.7590532,194.383097 74.74,195.05 C74.6770878,196.136627 74.3911534,197.198669 73.9,198.17 C73.3007026,199.482476 72.5560451,200.723572 71.68,201.87 C70.3389781,203.64586 68.5756055,205.05862 66.55,205.98 C64.2946526,206.911589 61.8694062,207.361213 59.43,207.3 C54.5233333,207.3 50.6233333,205.633333 47.73,202.3 C44.8366667,198.966667 43.3933333,194.463333 43.399977,188.79 C43.399977,183.15 44.8433333,178.67 47.73,175.35 C50.6166667,172.03 54.5166667,170.363333 59.43,170.35 C64.17,170.35 67.94,171.77 70.77,174.61 C73.6,177.45 75,181.25 75,186 C75.1080849,186.9681 74.8591837,187.94237 74.3,188.74 C73.5164776,189.30506 72.5491629,189.55492 71.59,189.44 L49.1,189.44 L49.1,189.45 Z M49.45,184.89 L69.1,184.89 L69.1,184.44 C69.2048071,181.874223 68.2417606,179.379715 66.44,177.55 C64.5863309,175.755924 62.0774077,174.801521 59.5,174.91 C56.9296609,174.818483 54.4347069,175.787538 52.6,177.59 C50.7125081,179.569466 49.5952218,182.158733 49.45,184.89 L49.45,184.89 Z" id="Shape" fill="#231F20" fill-rule="nonzero"></path>
                <path d="M81.87,171.5 C82.1672493,171.529864 82.4645601,171.443894 82.7,171.26 C82.8929436,171.025034 82.9830636,170.72223 82.95,170.42 L82.95,163.64 C82.9355985,163.043071 83.1886616,162.470928 83.64,162.08 C84.141613,161.648071 84.7886059,161.422875 85.45,161.45 C86.1277013,161.426715 86.7901113,161.654641 87.31,162.09 C87.7810022,162.467088 88.0565986,163.036654 88.06,163.64 L88.06,170.21 C88.0203179,170.578695 88.0789723,170.951324 88.23,171.29 C88.35,171.43 88.63,171.5 89.07,171.5 L96.2,171.5 C96.9182474,171.456907 97.6280588,171.6734 98.2,172.11 C98.6841494,172.546778 98.9450793,173.17889 98.91,173.83 C98.9694884,174.533092 98.6865696,175.221775 98.15,175.68 C97.4671874,176.119937 96.6602694,176.326929 95.85,176.27 L89.07,176.27 C88.7468725,176.241964 88.438794,176.411803 88.29,176.7 C88.1035522,177.194321 88.025127,177.722838 88.06,178.25 L88.06,193.25 C88.06,197.21 88.3933333,199.736667 89.06,200.83 C89.76,201.92 91.06,202.46 92.82,202.46 C94.2040089,202.533498 95.5429497,201.956496 96.44,200.9 C97.3665031,199.608384 97.8186436,198.03649 97.72,196.45 C97.72,196.05 97.72,195.45 97.65,194.64 C97.58,193.83 97.58,193.22 97.58,192.83 C97.5260665,191.957341 97.7388134,191.088915 98.19,190.34 C98.6034863,189.770932 99.2776671,189.450791 99.98,189.49 C100.873013,189.404907 101.74196,189.810671 102.25,190.55 C102.785462,191.730575 103.01255,193.027731 102.91,194.32 C102.91,198.52 102.003333,201.733333 100.19,203.96 C98.38,206.18 95.75,207.3 92.3,207.3 C88.85,207.3 86.41,206.42 84.92,204.67 C83.43,202.92 82.7,199.97 82.7,195.82 L82.7,178.25 C82.7533987,177.689582 82.6746229,177.124451 82.47,176.6 C82.2835105,176.363891 81.9893178,176.239424 81.69,176.27 L79,176.27 C78.3402567,176.385388 77.6654554,176.174442 77.1888959,175.70384 C76.7123364,175.233237 76.492919,174.561142 76.6,173.9 C76.5388276,173.234601 76.7601922,172.574136 77.21,172.08 C77.7533745,171.642936 78.445709,171.434877 79.14,171.5 L81.87,171.5 Z" id="Path" fill="#231F20"></path>
                <path d="M109.52,171.5 C109.820301,171.529388 110.120553,171.443602 110.36,171.26 C110.545455,171.02149 110.631457,170.720485 110.6,170.42 L110.6,163.64 C110.588088,163.04144 110.844943,162.469022 111.3,162.08 C111.796996,161.646918 112.441407,161.421375 113.1,161.45 C113.778274,161.422852 114.442037,161.651244 114.96,162.09 C115.431002,162.467088 115.706599,163.036654 115.71,163.64 L115.71,170.21 C115.668373,170.579735 115.730709,170.953752 115.89,171.29 C116,171.43 116.28,171.5 116.72,171.5 L123.85,171.5 C124.568247,171.456907 125.278059,171.6734 125.85,172.11 C126.337828,172.544174 126.599523,173.17814 126.56,173.83 C126.619488,174.533092 126.33657,175.221775 125.8,175.68 C125.117187,176.119937 124.310269,176.326929 123.5,176.27 L116.72,176.27 C116.396872,176.241964 116.088794,176.411803 115.94,176.7 C115.753552,177.194321 115.675127,177.722838 115.71,178.25 L115.71,193.25 C115.71,197.21 116.06,199.736667 116.759997,200.83 C117.45,201.92 118.7,202.46 120.51,202.46 C121.894289,202.535066 123.233897,201.957776 124.13,200.9 C125.064586,199.611903 125.520773,198.038235 125.42,196.45 C125.42,196.05 125.42,195.45 125.35,194.64 C125.28,193.83 125.28,193.22 125.28,192.83 C125.22153,191.956941 125.434605,191.087173 125.89,190.34 C126.294508,189.760222 126.975042,189.437064 127.68,189.49 C128.570349,189.404293 129.436644,189.810609 129.94,190.55 C130.475462,191.730575 130.70255,193.027731 130.6,194.32 C130.6,198.52 129.696667,201.733333 127.89,203.96 C126.08,206.18 123.45,207.3 119.99,207.3 C116.53,207.3 114.1,206.42 112.62,204.67 C111.14,202.92 110.39,199.97 110.39,195.82 L110.39,178.25 C110.443399,177.689582 110.364623,177.124451 110.16,176.6 C109.97351,176.363891 109.679318,176.239424 109.38,176.27 L106.67,176.27 C106.006873,176.330173 105.347404,176.121161 104.84,175.69 C104.419711,175.19277 104.214616,174.548701 104.27,173.9 C104.208828,173.234601 104.430192,172.574136 104.88,172.08 C105.424367,171.644824 106.115922,171.436999 106.81,171.5 L109.52,171.5 Z" id="Path" fill="#231F20"></path>
                <path d="M140.89,189.45 L140.89,189.66 C140.89,193.58 141.86,196.72 143.8,199.08 C145.659945,201.415578 148.51607,202.732363 151.5,202.63 C153.196416,202.695466 154.883742,202.352514 156.42,201.63 C157.888769,200.814209 159.137795,199.654399 160.06,198.25 C160.610281,197.355073 161.053328,196.398494 161.38,195.4 C162.1,193.5 163,192.55 164.09,192.55 C164.74373,192.533135 165.37469,192.790596 165.83,193.26 C166.296412,193.737057 166.549053,194.383097 166.53,195.05 C166.467088,196.136627 166.181153,197.198669 165.69,198.17 C165.090703,199.482476 164.346045,200.723572 163.47,201.87 C162.128978,203.64586 160.365606,205.05862 158.34,205.98 C156.088086,206.911354 153.666148,207.360997 151.23,207.3 C146.31,207.3 142.406667,205.633333 139.52,202.3 C136.633333,198.966667 135.19,194.473333 135.19,188.82 C135.19,183.18 136.633333,178.7 139.52,175.38 C142.406667,172.06 146.31,170.393333 151.23,170.38 C155.963333,170.38 159.74,171.8 162.56,174.64 C165.38,177.48 166.796667,181.28 166.81,186.04 C166.926704,187.008681 166.677025,187.985994 166.11,188.78 C165.326478,189.34506 164.359163,189.59492 163.4,189.48 L140.89,189.48 L140.89,189.45 Z M141.24,184.89 L160.89,184.89 L160.89,184.44 C160.994807,181.874223 160.031761,179.379715 158.23,177.55 C154.298538,174.002777 148.321462,174.002777 144.39,177.55 C142.493749,179.539744 141.375798,182.144748 141.24,184.89 L141.24,184.89 Z" id="Shape" fill="#231F20" fill-rule="nonzero"></path>
                <path d="M198.53,170 L198.53,168.57 C198.53,165.97 198.24,164.35 197.68,163.7 C197.12,163.05 195.99,162.7 194.32,162.7 L192.13,162.7 C191.425302,162.755568 190.722038,162.576235 190.13,162.19 C189.690587,161.774646 189.462669,161.182796 189.51,160.58 C189.470603,159.915332 189.739948,159.26964 190.24,158.83 C190.850286,158.377468 191.602049,158.157613 192.36,158.21 C192.45,158.21 192.87,158.28 193.63,158.42 C194.312107,158.553285 195.005023,158.623581 195.7,158.63 C197.372724,158.62823 199.043342,158.511287 200.7,158.28 C200.91854,158.244507 201.138877,158.221138 201.36,158.21 C202.080899,158.125446 202.804692,158.342584 203.36,158.81 C203.800035,159.575796 203.98233,160.46273 203.88,161.34 L203.88,197.34 C203.88,199.62 204.1,200.99 204.54,201.47 C205.319054,202.04503 206.289072,202.299167 207.25,202.18 L209.1,202.18 C209.893729,202.121444 210.685441,202.31762 211.36,202.74 C211.86656,203.153294 212.139144,203.78808 212.09,204.44 C212.142028,205.050133 211.887119,205.64617 211.41,206.03 C210.754452,206.413735 209.997371,206.588178 209.24,206.53 C208.94,206.53 208.273333,206.46 207.24,206.32 C206.335537,206.190687 205.423599,206.120538 204.51,206.11 C203.786273,206.134087 203.064814,206.204229 202.35,206.32 C201.602228,206.440596 200.84719,206.510754 200.09,206.53 C199.58897,206.596636 199.0865,206.41798 198.74,206.05 C198.432771,205.345819 198.312227,204.574338 198.39,203.81 L198.39,203.19 C197.066223,204.464577 195.49804,205.457873 193.78,206.11 C191.951001,206.792063 190.011923,207.131063 188.06,207.11 C183.046667,207.11 179.076667,205.503333 176.15,202.29 C173.223333,199.076667 171.756667,194.743333 171.75,189.29 C171.75,183.45 173.17,178.806667 176.01,175.36 C178.807775,171.934745 183.050584,170.020668 187.47,170.19 C189.683036,170.131134 191.877866,170.604394 193.87,171.57 C195.780552,172.599871 197.405762,174.087642 198.6,175.9 L198.53,170 Z M198.53,191.42 L198.53,186.93 C198.53,183.2 197.62,180.27 195.82,178.15 C193.968115,176.010076 191.236892,174.837973 188.41,174.97 C185.305581,174.855522 182.333108,176.230291 180.41,178.67 C178.41,181.136667 177.41,184.47 177.41,188.67 C177.41,193.103333 178.41,196.516667 180.41,198.91 C182.49523,201.354493 185.60176,202.685863 188.81,202.51 C192.15,202.51 194.61,201.62 196.17,199.83 C197.73,198.04 198.53,195.28 198.53,191.43 L198.53,191.42 Z" id="Shape" fill="#231F20" fill-rule="nonzero"></path>
                <path d="M219.12,202.91 C219.098038,201.768282 219.541909,200.66684 220.349375,199.859375 C221.15684,199.051909 222.258282,198.608038 223.4,198.63 C224.546724,198.607096 225.652708,199.055272 226.46,199.87 C228.107333,201.530787 228.107333,204.209213 226.46,205.87 C225.672906,206.681631 224.590602,207.139806 223.46,207.14 C222.318282,207.161962 221.21684,206.718091 220.409375,205.910625 C219.601909,205.10316 219.158038,204.001718 219.18,202.86 L219.12,202.91 Z" id="Path" fill="#41EA99"></path>
                <path d="M149.91,31.2 C146.690646,31.2015601 143.766275,33.0756559 142.42,36 L110.22,29.93 C109.146981,29.7519189 108.128364,30.4640143 107.927093,31.5329259 C107.725822,32.6018374 108.415697,33.6356337 109.48,33.86 L141.68,39.93 C141.833998,42.5510929 143.226433,44.9423675 145.43,46.37 C143.846149,49.4816169 141.604308,52.2114083 138.86,54.37 C134.523301,57.8832739 128.875831,59.3425687 123.38,58.37 C120.27,57.79 115.91,55.21 113.38,53.08 C112.541744,52.550714 111.442257,52.7153827 110.795844,53.4670257 C110.149431,54.2186687 110.151199,55.3304172 110.8,56.08 C113.284957,58.1286261 116.049476,59.8122551 119.01,61.08 L119.14,72.6 C116.14,72.48 109.89,71.7 105.98,67.34 C105.230947,66.5846099 104.021641,66.5477817 103.228009,67.2561909 C102.434378,67.9646002 102.334184,69.1703113 103,70 C106.041643,73.1712728 110.02596,75.275666 114.36,76 C112.673287,78.266814 112.265644,81.2397792 113.279939,83.8769466 C114.294234,86.514114 116.589008,88.447688 119.36,89 L119.72,121.31 C119.708726,122.307287 120.433924,123.160461 121.42,123.31 C125.52,123.95 127.93,127.66 129.14,130.23 L115.24,130.23 C114.84,127.23 113.52,123.53 110.54,121.23 C113.575087,113.883903 114.429156,105.81885 113,98 C112.820507,96.8954305 111.779569,96.1455075 110.675,96.325 C109.570431,96.5044925 108.820507,97.5454305 109,98.65 C110.275968,105.683862 109.526875,112.935499 106.84,119.56 C105.880766,119.328094 104.89685,119.21392 103.91,119.22 C102.660542,119.223105 101.417954,119.404947 100.22,119.76 C102.062903,115.912674 103.084582,111.723786 103.22,107.46 C103.22,99.09 98.22,93.05 89.89,91.31 C89.1758774,91.1227555 88.4166792,91.3441421 87.915133,91.8858828 C87.4135867,92.4276234 87.2512684,93.2016045 87.492902,93.8992038 C87.7345355,94.5968032 88.3408193,95.1045569 89.07,95.22 C95.62,96.59 99.22,100.94 99.22,107.46 C99.22,115.95 92.98,124.53 92.92,124.61 C92.2939744,125.481775 92.467649,126.692263 93.3135308,127.352857 C94.1594126,128.01345 95.3759085,127.888619 96.07,127.07 C96.07,127.07 99.32,123.22 103.94,123.22 C106.74978,123.071943 109.326696,124.776361 110.29,127.42 C110.674635,128.324795 110.953158,129.271103 111.12,130.24 L64.26,130.24 C60.0584856,120.468695 59.0403442,109.622515 61.35,99.24 C61.42,98.95 61.49,98.66 61.57,98.37 C63.48,90.8 67.57,82.63 75.2,74.69 C76.6370424,74.9363886 78.0920028,75.0634886 79.55,75.07 C82.1615353,75.0638954 84.7584447,74.6799166 87.26,73.93 C94.3049498,71.8116466 100.259337,67.053869 103.88,60.65 C111.59,47.24 107.44,30.35 94.63,23 C94.17275,22.7367724 93.6300104,22.6648863 93.12,22.8 C92.6041577,22.9379127 92.1648812,23.2763717 91.9,23.74 L66,68.87 C65.7360927,69.3301468 65.6657953,69.8762866 65.8045735,70.3882658 C65.9433517,70.900245 66.2798367,71.3361214 66.74,71.6 C68.0507051,72.3544253 69.4261688,72.9902844 70.85,73.5 C69.2556972,75.2460416 67.7632285,77.0824126 66.38,79 L57.27,79 C60.8185468,73.0700153 63.3786577,66.6021889 64.85,59.85 C68.91,40.38 61.68,22.65 61.37,21.91 C61.1173861,21.3002112 60.5801797,20.8543234 59.9342952,20.7183477 C59.2884107,20.582372 58.6170284,20.7738201 58.14,21.23 C55.4059732,24.0025008 52.9260443,27.0145602 50.73,30.23 C48.3315471,19.9240318 44.3761168,10.0438863 39,0.93 C38.6371264,0.378753739 38.0256708,0.0420083612 37.365818,0.0296795511 C36.7059651,0.0180137123 36.0826725,0.332309123 35.7,0.87 C30.0741379,9.6488119 25.859618,19.2554877 23.21,29.34 C21.163223,26.4480155 18.8786254,23.7319199 16.38,21.22 C15.9029716,20.7638201 15.2315893,20.572372 14.5857048,20.7083477 C13.9398203,20.8443234 13.4026139,21.2902112 13.15,21.9 C12.84,22.64 5.61,40.37 9.67,59.84 C11.1403092,66.5956496 13.7004508,73.0669308 17.25,79 L3,79 C1.8954305,79 1,79.8954305 1,81 L1,98.33 C1,99.4345695 1.8954305,100.33 3,100.33 L9.76,100.33 L16.76,132.66 C16.9612834,133.598276 17.8006144,134.261347 18.76,134.240501 L31.37,134.240501 C32.4745695,134.240501 33.37,133.344569 33.37,132.24 C33.37,131.135431 32.4745695,130.24 31.37,130.24 L20.29,130.24 L13.85,100.33 L17.49,100.33 C18.5945695,100.33 19.49,99.4345695 19.49,98.33 C19.49,97.2254305 18.5945695,96.33 17.49,96.33 L5,96.33 L5,83 L25.44,83 C26.5445695,83 27.44,82.1045695 27.44,81 C27.44,79.8954305 26.5445695,79 25.44,79 L21.94,79 C17.9807443,72.8875253 15.1524405,66.1131451 13.59,59 C10.73,45.29 13.98,32.17 15.79,26.43 C19.74,30.96 27.97,41.7 30.79,55.43 C32.0816765,61.8728417 32.3080133,68.4839038 31.46,75 C31.3950049,75.5264577 31.541815,76.0571716 31.8681315,76.4753817 C32.1944479,76.8935919 32.6735382,77.1650378 33.2,77.23 C33.7264577,77.2949951 34.2571716,77.148185 34.6753817,76.8218685 C35.0935919,76.4955521 35.3650378,76.0164618 35.43,75.49 C36.2142159,69.4134269 36.1435293,63.2569653 35.22,57.2 C35.08,56.32 34.92,55.45 34.74,54.59 C33.124136,47.2208001 30.2377115,40.1891586 26.21,33.81 C26.21,33.74 26.26,33.68 26.28,33.62 C28.5529895,23.8828666 32.2601327,14.5374957 37.28,5.89 C40.88,12.6 49.28,30.4 49.28,51.01 C49.28,58.3 48.45,68.74 44.65,77.91 C44.49,78.32 44.32,78.72 44.14,79.12 L43.89,79.7 C43.7814969,80.0215585 43.750656,80.3642352 43.8,80.7 C43.8,80.8 43.8,80.9 43.8,81 C43.8,82.1045695 44.6954305,83 45.8,83 L63.8,83 C61.3020142,87.1642025 59.3906509,91.6532141 58.12,96.34 L46.26,96.34 L38.11,80.92 C37.866695,80.441905 37.4415269,80.0815931 36.93,79.92 C36.4234412,79.7669439 35.8768705,79.8208818 35.41,80.07 C29.1818209,83.4499943 24.7349996,89.3754385 23.23,96.3 C21.571402,103.622036 22.6379407,111.29756 26.23,117.89 C32.12,129 43.61,135.45 54.81,134 C55.9145694,133.856406 56.6935938,132.844569 56.5499998,131.74 C56.4064058,130.635431 55.3945694,129.856406 54.29,130 C44.74,131.26 34.88,125.64 29.76,116 C26.6293416,110.268063 25.6909821,103.592914 27.12,97.22 C28.2427468,92.110875 31.2581996,87.6162782 35.56,84.64 L61.23,133.17 L61.23,133.17 C61.2984323,133.291072 61.3788346,133.404975 61.47,133.51 L61.47,133.56 L61.47,133.56 C61.5818631,133.670469 61.7060046,133.767769 61.84,133.85 L61.84,133.85 L61.92,133.85 C62.0252327,133.909886 62.1356863,133.960092 62.25,134 L62.31,134 L62.38,134 C62.5343269,134.035326 62.6917479,134.055422 62.85,134.06 L131.85,134.06 C132.008563,134.059795 132.16647,134.039636 132.32,134 L132.32,134 L132.44,134 L132.64,133.92 L133,134 L133.16,133.9 C133.216456,133.864731 133.267065,133.820871 133.31,133.77 C133.36135,133.732001 133.408306,133.688398 133.45,133.64 C133.494721,133.593967 133.534906,133.543735 133.57,133.49 L133.69,133.34 L133.78,133.17 C133.78,133.11 133.83,133.06 133.86,132.99 L133.92,132.81 C133.92,132.75 133.92,132.69 133.92,132.62 C133.924939,132.550087 133.924939,132.479913 133.92,132.41 C133.92,132.41 133.92,132.32 133.92,132.28 L133.92,132.23 C133.924939,132.160087 133.924939,132.089913 133.92,132.02 L133.92,131.82 C133.916162,131.803554 133.916162,131.786446 133.92,131.77 C133.81,131.35 131.27,122.13 123.64,119.77 L123.29,88.9 C126.867352,87.8916017 129.326803,84.6131344 129.294078,80.8965176 C129.261353,77.1799007 126.744554,73.9452494 123.15,73 L123,62.31 C124.242076,62.523595 125.499706,62.6339721 126.76,62.64 C132.037964,62.5949407 137.14917,60.7856017 141.28,57.5 C144.641081,54.8725938 147.359798,51.5143806 149.23,47.68 C149.45,47.68 149.66,47.68 149.88,47.68 C152.897749,47.7850486 155.732328,46.2350337 157.272346,43.6376904 C158.812363,41.040347 158.812363,37.809653 157.272346,35.2123096 C155.732328,32.6149663 152.897749,31.0649514 149.88,31.17 L149.91,31.2 Z M70.47,69.05 L94.33,27.51 C103.88,34.23 106.67,47.75 100.42,58.63 C97.3068929,64.1425685 92.1830371,68.2380701 86.12,70.06 C80.9558244,71.6525061 75.3866388,71.293089 70.47,69.05 L70.47,69.05 Z M52.47,63.25 C52.9919428,59.1876755 53.2491522,55.0957076 53.24,51 C53.2237339,45.8394028 52.758648,40.6899987 51.85,35.61 C51.9540912,35.5023621 52.0478367,35.3851802 52.13,35.26 C54.1043372,32.1482398 56.3105966,29.1898464 58.73,26.41 C60.55,32.14 63.8,45.25 60.93,58.99 C59.4937474,65.5503528 56.9688163,71.8238094 53.46,77.55 C53.17,78.02 52.88,78.49 52.58,78.96 L48.51,78.96 C50.4753986,73.9081466 51.8023292,68.6306583 52.46,63.25 L52.47,63.25 Z M48.39,100.33 L57.18,100.33 C56.2408106,105.445098 56.0454599,110.669044 56.6,115.84 L48.39,100.33 Z M125.27,81 C125.264648,82.4608702 124.509366,83.8166027 123.27,84.59 C122.593207,85.0263248 121.805249,85.2588938 121,85.26 C119.002314,85.2760367 117.264438,83.89543 116.828259,81.9458778 C116.39208,79.9963256 117.375941,78.0067765 119.19,77.17 C119.753,76.8926515 120.372394,76.7489247 121,76.749994 C121.773369,76.7495892 122.531616,76.9642529 123.19,77.37 C124.47359,78.1298842 125.263462,79.5083616 125.27,81 L125.27,81 Z M147,42.57 C146.464769,42.0639612 146.065801,41.4311142 145.84,40.73 C145.39173,39.38009 145.671472,37.8944316 146.58,36.8 C147.741482,35.3428497 149.716712,34.8122491 151.45202,35.4912425 C153.187329,36.170236 154.277946,37.9004449 154.142093,39.7589043 C154.006239,41.6173636 152.675603,43.1705786 150.86,43.59 C150.532267,43.6676297 150.196795,43.7078863 149.86,43.71 C148.797693,43.7008039 147.777348,43.2940929 147,42.57 L147,42.57 Z" id="Shape" fill="#41EA99" fill-rule="nonzero"></path>
                <path d="M113,43 C116.73896,42.031405 120.692154,43.4229295 123,46.52 C123.379054,46.9872583 123.948326,47.2590396 124.55,47.2600092 C125.012639,47.2614032 125.461456,47.1023736 125.82,46.81 C126.671604,46.1104622 126.79682,44.8538291 126.1,44 C122.742494,39.5615729 116.993926,37.6559921 111.65,39.21 C110.972982,39.4511543 110.476045,40.035175 110.346382,40.7420671 C110.216718,41.4489593 110.474027,42.1713292 111.021382,42.6370671 C111.568737,43.1028051 112.322982,43.2411543 113,43 Z" id="Path" fill="#41EA99"></path>
            </g>
        </g>
    </g>
</svg>