<?xml version="1.0" encoding="UTF-8"?>
<svg width="344px" height="75px" viewBox="0 0 344 75" version="1.1" xmlns="http://www.w3.org/2000/svg" xmlns:xlink="http://www.w3.org/1999/xlink">
    <!-- Generator: Sketch 61.2 (89653) - https://sketch.com -->
    <title>logo</title>
    <desc>Created with Sketch.</desc>
    <g id="Symbols" stroke="none" stroke-width="1" fill="none" fill-rule="evenodd">
        <g id="logo--horizontal" transform="translate(-1.000000, 0.000000)">
            <g id="logo" transform="translate(1.000000, 0.000000)">
                <path d="M15.92,59.45 L15.92,13.16 C16.0492772,11.4664965 15.5706312,9.78237164 14.57,8.41 C13.5391469,7.31487193 12.0700957,6.74194198 10.57,6.85 C9.34700445,6.86446773 8.12685592,6.97143965 6.92,7.17 C6.01962005,7.32254136 5.11161389,7.42602736 4.2,7.48 C3.13516938,7.52834287 2.09164121,7.17097021 1.28,6.48 C0.547259535,5.7946694 0.152405428,4.82215836 0.2,3.82 C0.118035022,2.76548 0.51460252,1.7299982 1.28,1 C2.27773411,0.302940675 3.48666294,-0.0258031282 4.7,0.07 C5.33,0.07 7.2,0.17 10.31,0.38 C13.42,0.59 16.14,0.7 18.49,0.7 C21.1566667,0.7 24.8233333,0.593333333 29.49,0.38 C34.1566667,0.166666667 37.49,0.0633333333 39.49,0.07 C47.63,0.07 53.7633333,1.81 57.89,5.29 C62.0166667,8.77 64.0533333,13.94 64,20.8 C64.0877555,24.0568187 63.4703165,27.2941097 62.19,30.29 C60.9064033,33.0041953 58.9343008,35.334862 56.47,37.05 C54.2446484,38.6923713 51.7000449,39.8505577 49,40.45 C44.6399447,41.2409525 40.2094231,41.5760903 35.78,41.45 C34.55,41.45 33.21,41.45 31.78,41.45 C30.35,41.45 29.47,41.45 29.22,41.45 C28.0712477,41.3513855 26.9155972,41.5297055 25.85,41.97 C25.2491912,42.4650547 24.9311734,43.2245561 25,44 L25,59.43 C25,61.81 25.46,63.43 26.37,64.35 C27.28,65.27 28.88,65.69 31.16,65.69 C32.0964452,65.6566024 33.0290638,65.5529781 33.95,65.38 C34.8708769,65.2049442 35.8034021,65.0979879 36.74,65.06 C37.7993232,65.033069 38.8242127,65.4372507 39.58,66.18 C40.3466738,66.8979716 40.7689724,67.9100321 40.74,68.96 C40.7914548,70.1527317 40.1848388,71.2776587 39.16,71.89 C37.7578205,72.6475917 36.1703441,72.9942022 34.58,72.89 C33.2066667,72.89 30.8733333,72.7833333 27.58,72.57 C24.2866667,72.3566667 21.7066667,72.25 19.84,72.25 C16.86,72.25 13.6933333,72.3566667 10.34,72.57 C6.99,72.78 5.12,72.89 4.73,72.89 C3.50587848,72.9879653 2.28851446,72.6320109 1.31,71.89 C0.510067325,71.0774653 0.104669292,69.9562293 0.2,68.82 C0.164847213,67.8023809 0.556365145,66.8163358 1.28,66.1 C2.03535367,65.3746449 3.05359685,64.9882902 4.1,65.03 C5.02724063,65.0605035 5.95037821,65.167534 6.86,65.35 C7.72035248,65.5226981 8.59313086,65.6263615 9.47,65.66 C11.79,65.66 13.47,65.18 14.47,64.21 C15.47,63.24 15.92,61.69 15.92,59.45 Z M25,31.1 C24.8672627,32.1008208 25.3327942,33.0866523 26.19,33.62 C26.98,34.02 28.88,34.23 31.9,34.23 C40.5666667,34.23 46.5233333,33.23 49.77,31.23 C53.0166667,29.23 54.64,25.7666667 54.64,20.84 C54.64,15.78 53.21,12.18 50.35,10.04 C47.49,7.9 42.6366667,6.83 35.79,6.83 C30.79,6.83 27.79,7.19 26.66,7.9 C25.53,8.61 25,10.23 25,12.68 L25,31.1 Z" id="Shape" fill="#231F20" fill-rule="nonzero"></path>
                <path d="M73,47.28 L73,47.6 C73,53.5333333 74.4633333,58.29 77.39,61.87 C80.2138438,65.4022934 84.540294,67.3931278 89.06,67.24 C91.6343058,67.3206343 94.1900316,66.7786146 96.51,65.66 C98.725867,64.4213783 100.61204,62.6689521 102.01,60.55 C102.838183,59.193949 103.509177,57.7479583 104.01,56.24 C105.1,53.36 106.46,51.92 108.11,51.92 C109.102743,51.8926069 110.061102,52.2846629 110.75,53 C111.452004,53.7242167 111.830795,54.7018574 111.8,55.71 C111.703939,57.3492311 111.275237,58.9517586 110.54,60.42 C109.626752,62.4084315 108.49656,64.2898504 107.17,66.03 C105.142102,68.7191783 102.470043,70.854762 99.4,72.24 C95.993603,73.6549644 92.3273251,74.3364287 88.64,74.24 C81.1933333,74.24 75.2866667,71.7233333 70.92,66.69 C66.5533333,61.6566667 64.3666667,54.8533333 64.36,46.28 C64.36,37.7466667 66.5466667,30.9666667 70.92,25.94 C75.2933333,20.9133333 81.2,18.3933333 88.64,18.38 C95.8,18.38 101.52,20.53 105.8,24.83 C110.08,29.13 112.22,34.8766667 112.22,42.07 C112.22,44.14 111.87,45.53 111.22,46.23 C110.57,46.93 109.15,47.23 107.11,47.23 L73,47.23 L73,47.28 Z M73.52,40.39 L103.27,40.39 L103.27,39.7 C103.438713,35.8223591 101.99009,32.0486953 99.27,29.28 C93.3107299,23.8818118 84.2292701,23.8818118 78.27,29.28 C75.5566667,32.0133333 73.97,35.7166667 73.51,40.39 L73.52,40.39 Z" id="Shape" fill="#231F20" fill-rule="nonzero"></path>
                <path d="M122.58,20.12 C123.036554,20.2248963 123.514956,20.0874435 123.8462,19.7561997 C124.177444,19.424956 124.314896,18.9465541 124.21,18.49 L124.21,8.22 C124.194075,7.31183248 124.582432,6.44352518 125.27,5.85 C126.021777,5.17842226 127.002371,4.82054119 128.01,4.85 C129.038225,4.82359081 130.039622,5.17995965 130.82,5.85 C131.559502,6.41432884 131.995381,7.2897802 132,8.22 L132,18.22 C131.93255,18.7769561 132.022626,19.3416661 132.26,19.85 C132.43,20.06 132.85,20.17 133.52,20.17 L144.32,20.17 C145.397562,20.1103514 146.461133,20.4365129 147.32,21.09 C148.059883,21.7450345 148.458025,22.7035268 148.4,23.69 C148.485084,24.7554073 148.053606,25.7969072 147.24,26.49 C146.209907,27.1538647 144.992453,27.4661223 143.77,27.38 L133.48,27.38 C132.988976,27.3392322 132.522271,27.6002708 132.3,28.04 C132.020199,28.7865995 131.904244,29.5846442 131.96,30.38 L131.96,53 C131.96,59 132.483333,62.8266667 133.53,64.48 C134.59,66.13 136.53,66.95 139.22,66.95 C141.317157,67.06254 143.345741,66.1852146 144.7,64.58 C145.99,63 146.64,60.76 146.64,57.84 C146.64,57.25 146.64,56.34 146.54,55.11 C146.44,53.88 146.43,52.97 146.43,52.37 C146.346913,51.0490838 146.667796,49.7341609 147.35,48.6 C147.980438,47.7380082 149.003602,47.2527579 150.07,47.31 C151.418039,47.1843311 152.727916,47.800969 153.49,48.92 C154.15,49.99 154.49,51.92 154.49,54.63 C154.49,60.99 153.12,65.8533333 150.38,69.22 C147.64,72.5866667 143.656667,74.27 138.43,74.27 C133.24,74.27 129.51,72.95 127.27,70.27 C125.03,67.59 123.9,63.15 123.9,56.87 L123.9,30.33 C123.977254,29.4816761 123.861002,28.626881 123.56,27.83 C123.273868,27.4722133 122.82581,27.2839537 122.37,27.33 L118.27,27.33 C117.267788,27.4191881 116.271244,27.106194 115.5,26.46 C114.322641,24.8206652 114.342871,22.6075388 115.55,20.99 C116.381358,20.3396239 117.428424,20.0287204 118.48,20.12 L122.58,20.12 Z" id="Path" fill="#231F20"></path>
                <path d="M164.44,20.12 C164.895608,20.2191544 165.370367,20.0797759 165.700071,19.7500713 C166.029776,19.4203667 166.169154,18.945608 166.07,18.49 L166.07,8.22 C166.045496,7.3101009 166.435423,6.43828486 167.13,5.85 C167.878709,5.17994045 168.855626,4.8220955 169.86,4.85 C170.891491,4.82205301 171.896555,5.1784588 172.68,5.85 C173.392463,6.41793436 173.808216,7.2788743 173.81,8.19 L173.81,18.19 C173.74566,18.747895 173.839208,19.3126483 174.08,19.82 C174.25,20.03 174.67,20.14 175.34,20.14 L186.13,20.14 C187.207455,20.0812319 188.270728,20.4073023 189.13,21.06 C189.869883,21.7150345 190.268025,22.6735268 190.21,23.66 C190.295084,24.7254073 189.863606,25.7669072 189.05,26.46 C188.019907,27.1238647 186.802453,27.4361223 185.58,27.35 L175.34,27.35 C174.846678,27.3105655 174.377768,27.570633 174.15,28.01 C173.875209,28.757878 173.759411,29.5548446 173.81,30.35 L173.81,53 C173.81,59 174.336667,62.8266667 175.39,64.48 C176.443333,66.1333333 178.34,66.9566667 181.08,66.95 C183.174283,67.0625057 185.19982,66.1848966 186.55,64.58 C187.85,63 188.5,60.76 188.5,57.84 C188.5,57.25 188.5,56.34 188.4,55.11 C188.3,53.88 188.29,52.97 188.29,52.37 C188.206913,51.0490838 188.527796,49.7341609 189.21,48.6 C189.837256,47.7396226 190.856702,47.2543515 191.92,47.31 C193.271082,47.182751 194.584673,47.7993346 195.35,48.92 C196.01,49.99 196.35,51.92 196.35,54.63 C196.35,60.99 194.98,65.8533333 192.24,69.22 C189.5,72.5866667 185.516667,74.27 180.29,74.27 C175.09,74.27 171.37,72.9366667 169.13,70.27 C166.89,67.6033333 165.766667,63.1366667 165.76,56.87 L165.76,30.33 C165.840972,29.4807509 165.721078,28.6243621 165.41,27.83 C165.129386,27.4707653 164.683282,27.2817379 164.23,27.33 L160.12,27.33 C159.121019,27.4175873 158.128175,27.1046255 157.36,26.46 C156.182641,24.8206652 156.202871,22.6075388 157.41,20.99 C158.238288,20.3411667 159.281669,20.0302964 160.33,20.12 L164.44,20.12 Z" id="Path" fill="#231F20"></path>
                <path d="M211.93,47.28 L211.93,47.6 C211.93,53.5333333 213.396667,58.29 216.33,61.87 C219.151833,65.4048631 223.47965,67.3963267 228,67.24 C230.574306,67.3206343 233.130032,66.7786146 235.45,65.66 C237.667958,64.4242537 239.554754,62.671249 240.95,60.55 C241.778183,59.193949 242.449177,57.7479583 242.95,56.24 C244.036667,53.36 245.406667,51.92 247.06,51.92 C248.049524,51.8941947 249.004183,52.2862218 249.69,53 C250.392004,53.7242167 250.770795,54.7018574 250.74,55.71 C250.643939,57.3492311 250.215237,58.9517586 249.48,60.42 C248.565452,62.4004948 247.431701,64.2721895 246.1,66 C244.074282,68.6912966 241.401629,70.8273552 238.33,72.21 C234.923603,73.6249644 231.257325,74.3064287 227.57,74.21 C220.13,74.21 214.223333,71.6933333 209.85,66.66 C205.476667,61.6266667 203.293333,54.8233333 203.299985,46.25 C203.299985,37.7166667 205.483333,30.9366667 209.85,25.91 C214.216667,20.8833333 220.123333,18.3633333 227.57,18.35 C234.73,18.35 240.45,20.5 244.73,24.8 C249.01,29.1 251.15,34.8466667 251.15,42.04 C251.15,44.11 250.8,45.5 250.15,46.2 C249.5,46.9 248.08,47.2 246.04,47.2 L211.93,47.2 L211.93,47.28 Z M212.46,40.39 L242.2,40.39 L242.2,39.7 C242.361461,35.8235442 240.913908,32.0526672 238.2,29.28 C232.237149,23.8911071 223.162851,23.8911071 217.2,29.28 C214.493333,32.0133333 212.913333,35.7166667 212.46,40.39 Z" id="Shape" fill="#231F20" fill-rule="nonzero"></path>
                <path d="M299.17,17.85 L299.17,15.69 C299.17,11.76 298.74,9.31 297.88,8.32 C297.02,7.33 295.33,6.85 292.8,6.85 L289.48,6.85 C288.406084,6.93855421 287.333191,6.66769263 286.43,6.08 C285.759243,5.45731755 285.40942,4.56250567 285.48,3.65 C285.421346,2.64272363 285.830977,1.66477768 286.59,1 C287.512285,0.311124897 288.651809,-0.0225674257 289.8,0.06 C289.94,0.06 290.58,0.16 291.72,0.37 C292.751601,0.570484412 293.799172,0.677584316 294.85,0.69 C297.369363,0.691283915 299.885656,0.51417436 302.38,0.16 C302.711447,0.109927356 303.045201,0.0765518857 303.38,0.06 C304.480666,-0.0772406782 305.588902,0.248710975 306.44,0.96 C306.96,1.56 307.23,2.84 307.23,4.8 L307.23,59.24 C307.23,62.68 307.563333,64.76 308.23,65.48 C308.89,66.2 310.23,66.55 312.33,66.55 L315.12,66.55 C316.32318,66.4572336 317.523812,66.7591471 318.54,67.41 C319.308474,68.0288728 319.723501,68.9860521 319.65,69.97 C319.739586,70.8898543 319.364507,71.7937943 318.65,72.38 C317.658636,72.9682678 316.508935,73.2338523 315.36,73.14 C314.91,73.14 313.88,73.03 312.28,72.82 C310.911601,72.6250482 309.532097,72.5181617 308.15,72.5 C307.05767,72.5377736 305.968826,72.644654 304.89,72.82 C303.754867,73.0013416 302.609088,73.1082364 301.46,73.14 C300.701277,73.237491 299.941131,72.9705129 299.41,72.42 C298.945594,71.3541338 298.763083,70.1867515 298.88,69.03 L298.88,68.03 C296.873461,69.9665017 294.49103,71.4708369 291.88,72.45 C289.112696,73.4908146 286.176415,74.00958 283.22,73.98 C275.64,73.98 269.64,71.55 265.22,66.69 C260.8,61.83 258.58,55.2733333 258.56,47.02 C258.56,38.18 260.71,31.1533333 265.01,25.94 C269.31,20.7266667 275.093333,18.12 282.36,18.12 C285.697208,18.0511484 289.002485,18.7814637 292,20.25 C294.890596,21.8090508 297.350395,24.0592854 299.16,26.8 L299.17,17.85 Z M299.17,50.29 L299.17,43.49 C299.17,37.8433333 297.8,33.4133333 295.06,30.2 C292.32,26.9866667 288.583333,25.38 283.85,25.38 C279.156141,25.2129816 274.665754,27.3020522 271.77,31 C268.763333,34.74 267.26,39.8033333 267.26,46.19 C267.26,52.8566667 268.763333,58.0266667 271.77,61.7 C274.776667,65.3733333 279.013333,67.1866667 284.48,67.14 C289.54,67.14 293.253333,65.8066667 295.62,63.14 C297.986667,60.4733333 299.17,56.19 299.17,50.29 L299.17,50.29 Z" id="Shape" fill="#231F20" fill-rule="nonzero"></path>
                <path d="M330.34,67.66 C330.298978,65.9367063 330.963643,64.2714332 332.18,63.05 C333.39819,61.814117 335.075374,61.1403455 336.81,61.19 C338.545283,61.1530334 340.220729,61.8246561 341.45,63.05 C343.580058,65.1310524 344.035307,68.388322 342.557439,70.9736326 C341.079571,73.5589431 338.041778,74.8194492 335.167707,74.039939 C332.293635,73.2604288 330.309047,70.6377452 330.34,67.66 L330.34,67.66 Z" id="Path" fill="#41EA99"></path>
            </g>
        </g>
    </g>
</svg>