<?xml version="1.0" encoding="UTF-8"?>
<svg width="200px" height="200px" viewBox="0 0 200 200" version="1.1" xmlns="http://www.w3.org/2000/svg" xmlns:xlink="http://www.w3.org/1999/xlink">
    <title>petted__logotype</title>
    <g id="petted__logotype" stroke="none" stroke-width="1" fill="none" fill-rule="evenodd">
        <path d="M149.003699,165.854418 C148.919032,162.165735 150.290876,158.601245 152.801396,155.986786 C155.315698,153.341398 158.777348,151.899201 162.357557,152.005485 C165.939122,151.926359 169.397184,153.363957 171.934357,155.986786 C176.330723,160.441246 177.270341,167.41338 174.220072,172.947197 C171.169804,178.481013 164.899905,181.179107 158.96792,179.510577 C153.035934,177.842048 148.939814,172.228235 149.003699,165.854418 L149.003699,165.854418 Z" id="Path" fill="#41EA99"></path>
        <path d="M57.7600467,150.443796 L57.7600467,48.7835286 C58.0456552,45.0643232 56.9881956,41.3657148 54.7775284,38.3517665 C52.5000926,35.9466895 49.2545578,34.6884434 45.9404372,34.9257562 C43.2385064,34.9575296 40.5428654,35.1924571 37.8765915,35.6285275 C35.8874066,35.9635328 33.8813732,36.1908047 31.8673695,36.3093372 C29.5148682,36.415506 27.2094297,35.6306582 25.4162929,34.1131768 C23.7974693,32.6080808 22.9251289,30.4722906 23.0302783,28.27139 C22.8491953,25.9554949 23.7253211,23.6814107 25.4162929,22.0782176 C27.6205597,20.5473634 30.2914133,19.8253893 32.9720059,20.0357883 C34.3638477,20.0357883 38.4951879,20.2554044 45.3660263,20.7165981 C52.2368647,21.1777918 58.2460867,21.4193694 63.4378777,21.4193694 C69.3292719,21.4193694 77.4299388,21.1851123 87.7398785,20.7165981 C98.0498182,20.2480838 105.414061,20.0211473 109.832606,20.0357883 C127.816087,20.0357883 141.366294,23.8571075 150.483226,31.4997459 C159.600158,39.1423842 164.099711,50.4965337 163.981883,65.5621944 C164.175759,72.7146908 162.811667,79.8243012 159.983099,86.403757 C157.147284,92.3645654 152.790371,97.4830834 147.346059,101.249802 C142.42965,104.856713 136.807927,107.400276 130.842791,108.716747 C121.210239,110.453806 111.422008,111.189822 101.636204,110.912908 C98.9187989,110.912908 95.9583733,110.912908 92.7991132,110.912908 C89.6398531,110.912908 87.6956931,110.912908 87.1433749,110.912908 C84.6054676,110.696334 82.0523205,111.087954 79.6981255,112.054911 C78.370775,113.142131 77.6681869,114.810117 77.8202437,116.513117 L77.8202437,150.399872 C77.8202437,155.626734 78.8365091,159.184514 80.8469474,161.204982 C82.8573856,163.225449 86.3922221,164.147837 91.4293641,164.147837 C93.4982269,164.07449 95.5586359,163.846915 97.5932352,163.467027 C99.6277034,163.082576 101.687906,162.847683 103.757106,162.764256 C106.09744,162.705111 108.361701,163.592759 110.031441,165.223955 C111.725233,166.800736 112.658206,169.023384 112.594197,171.329281 C112.707875,173.948712 111.367695,176.419232 109.103546,177.764032 C106.005749,179.427824 102.498581,180.189037 98.9850771,179.960192 C95.9510091,179.960192 90.7960392,179.725935 83.5201675,179.257421 C76.2442957,178.788906 70.5443719,178.554649 66.420396,178.554649 C59.8367631,178.554649 52.8407326,178.788906 45.4323045,179.257421 C38.0312406,179.718614 33.8999005,179.960192 33.0382841,179.960192 C30.3338657,180.175339 27.6443765,179.393606 25.4825711,177.764032 C23.7153016,175.979575 22.8196667,173.517161 23.0302783,171.021819 C22.9526162,168.786964 23.8175861,166.621451 25.4162929,165.048263 C27.0850752,163.455266 29.3346522,162.606769 31.6464422,162.698371 C33.6949697,162.765362 35.7344324,163.000418 37.7440351,163.401142 C39.6447884,163.780415 41.572994,164.008076 43.5102371,164.081952 C48.63575,164.081952 52.3473283,163.027795 54.5566011,160.897519 C56.7658739,158.767244 57.7600467,155.363195 57.7600467,150.443796 Z M78.049038,87.1459854 C77.758167,89.3375639 78.7782992,91.4963189 80.6567183,92.6642336 C82.3878674,93.540146 86.5513906,94 93.1692012,94 C112.160711,94 125.213721,91.810219 132.328233,87.4306569 C139.442744,83.0510949 143,75.4671533 143,64.6788321 C143,53.5985401 139.866401,45.7153285 133.599203,41.0291971 C127.332005,36.3430657 116.69676,34 101.693467,34 C90.7368271,34 84.1628431,34.7883212 81.6866425,36.3430657 C79.2104418,37.8978102 78.049038,41.4452555 78.049038,46.810219 L78.049038,87.1459854 Z" id="Shape" fill="#231F20" fill-rule="nonzero"></path>
    </g>
</svg>