<?xml version="1.0" encoding="UTF-8"?>
<svg width="200px" height="200px" viewBox="0 0 200 200" version="1.1" xmlns="http://www.w3.org/2000/svg" xmlns:xlink="http://www.w3.org/1999/xlink">
    <title>petted__isotype</title>
    <g id="petted__isotype" stroke="none" stroke-width="1" fill="none" fill-rule="evenodd">
        <path d="M181.02214,58.2581294 C177.280642,58.2570349 173.881312,60.4358239 172.319327,63.8361668 L134.905366,56.7822736 C134.081252,56.6085168 133.227642,56.8943258 132.674235,57.5293088 C132.120829,58.1642918 131.954257,59.0490479 132.238858,59.8418463 C132.523459,60.6346447 133.21468,61.2113798 134.045542,61.3492918 L171.459503,68.403185 C171.634741,71.4502478 173.253548,74.2306782 175.816719,75.8870519 C173.968379,79.5011251 171.360253,82.6725552 168.171258,85.183781 C163.136623,89.2660127 156.57839,90.9619856 150.196289,89.8321455 C146.571086,89.1581327 141.516715,86.1599375 138.577047,83.6846834 C137.980067,82.9948718 137.034777,82.7181714 136.160132,82.9772168 C135.285487,83.2362622 134.643265,83.9831394 134.5181,84.8868302 C134.392936,85.7905209 134.807979,86.6838757 135.579282,87.1709568 C138.464854,89.5541212 141.677386,91.5108769 145.11868,92.9814125 L145.269731,106.368702 C141.783958,106.229251 134.510312,105.32282 129.967188,100.256103 C129.110501,99.2933953 127.635703,99.2075481 126.673133,100.064358 C125.710564,100.921168 125.624729,102.396179 126.481416,103.358886 C130.021666,107.042366 134.65413,109.487289 139.692494,110.331433 C137.732661,112.965678 137.259011,116.420534 138.437545,119.485163 C139.616079,122.549792 142.282432,124.796781 145.502115,125.438618 L145.920408,162.985783 C145.906462,164.140932 146.742939,165.130988 147.88406,165.309965 C152.64795,166.053703 155.459806,170.365061 156.865735,173.351635 L140.796322,173.351635 C140.331553,169.865362 138.797813,165.565625 135.323659,162.892815 C137.020068,159.092777 140.424507,149.30797 138.205231,135.850955 C138.114472,134.993161 137.556181,134.256193 136.755072,133.93668 C135.953963,133.617167 135.041816,133.76767 134.385773,134.32761 C133.729731,134.88755 133.43771,135.764819 133.62725,136.606314 C135.103397,144.780547 134.233194,153.205812 131.117493,160.905639 C129.998998,160.636116 128.851916,160.503441 127.701436,160.510528 C126.253436,160.513646 124.813407,160.724985 123.425555,161.138058 C125.566868,156.667114 126.753983,151.799245 126.911328,146.844337 C126.911328,137.117634 121.101706,130.098603 111.422877,128.076565 C110.593121,127.85897 109.71099,128.116241 109.128231,128.745793 C108.545473,129.375345 108.356871,130.274782 108.637631,131.085456 C108.918391,131.89613 109.622847,132.486186 110.470099,132.620341 C118.069084,134.212406 122.263631,139.267502 122.263631,146.844337 C122.263631,156.71049 115.013223,166.681232 114.931889,166.7742 C114.142581,167.788252 114.324655,169.250255 115.338562,170.039676 C116.352469,170.829096 117.814262,170.646996 118.603569,169.632944 C118.603569,169.632944 122.379823,165.158893 127.736294,165.158893 C131.005229,164.981585 134.005588,166.963239 135.126132,170.039676 C135.573049,171.09113 135.896671,172.190826 136.090529,173.316773 L81.5381856,173.316773 C76.6563442,161.961626 75.473341,149.357376 78.1569861,137.291948 L78.4009902,136.280928 C80.6202655,127.483898 85.3725357,117.989614 94.2496369,108.76261 C95.9192409,109.049945 97.6098787,109.197654 99.3040074,109.204205 C102.338499,109.198255 105.356075,108.752013 108.262443,107.879421 C116.453036,105.421425 123.376492,99.8918586 127.585244,92.4468506 C136.53206,76.8632085 131.710075,57.2354892 116.837444,48.6941193 C116.302975,48.3850936 115.667524,48.3014697 115.071319,48.4617011 C114.47627,48.6247252 113.970464,49.0177215 113.665391,49.5540668 L83.4785991,102.034102 C83.1719588,102.568835 83.0902785,103.203499 83.2515284,103.798466 C83.4127782,104.393432 83.8037482,104.89996 84.3384231,105.206611 C85.8602044,106.085559 87.4585947,106.82458 89.1139317,107.414584 C87.2736926,109.444835 85.5512244,111.57883 83.9549881,113.806086 L73.4047159,113.806086 C77.5293981,106.916927 80.5004876,99.3998158 82.2004825,91.5520404 C86.9178949,68.926126 78.5288018,48.3222502 78.1686053,47.4623027 C77.8763718,46.7492781 77.2497776,46.2274796 76.4957137,46.0691966 C75.7416499,45.9109135 74.9581718,46.1367284 74.4039708,46.6720807 C71.2351483,49.901102 68.3542568,53.4006631 65.7941121,57.130901 C63.0145682,45.155741 58.4265191,33.6741742 52.1879791,23.0816307 C51.7707945,22.4223891 51.0507239,22.0164728 50.2708041,22.00043 C49.487725,21.9853951 48.7495252,22.3654697 48.3071522,23.0119052 C41.782153,33.2185599 36.8896873,44.3811003 33.8063375,56.0966399 C31.4240473,52.7390517 28.7697934,49.5830287 25.8703949,46.6604598 C25.3168621,46.1326474 24.539105,45.9110199 23.7905505,46.0677934 C23.0386185,46.2239306 22.4123711,46.7415288 22.1173796,47.4506818 C21.7571831,48.3106292 13.3564708,68.9145051 18.0738832,91.5404195 C19.7967563,99.3938993 22.7872012,106.914261 26.927746,113.806086 L10.3238485,113.806086 C9.04042241,113.806086 8,114.846658 8,116.130268 L8,136.269307 C8,137.552918 9.04042241,138.59349 10.3238485,138.59349 L18.1784564,138.59349 L26.3119261,176.163896 C26.5414546,177.232689 27.4846707,177.997046 28.5776784,178 L43.3224971,178 C44.6059232,178 45.6463456,176.959428 45.6463456,175.675818 C45.6463456,174.392207 44.6059232,173.351635 43.3224971,173.351635 L30.4135187,173.351635 L22.9307266,138.59349 L27.1485116,138.59349 C28.4319377,138.59349 29.4723601,137.552918 29.4723601,136.269307 C29.4723601,134.985697 28.4319377,133.945125 27.1485116,133.945125 L12.647697,133.945125 L12.647697,118.45445 L36.3974286,118.45445 C37.6808547,118.45445 38.7212771,117.413878 38.7212771,116.130268 C38.7212771,114.846658 37.6808547,113.806086 36.3974286,113.806086 L32.3306937,113.806086 C27.7303385,106.702833 24.4440638,98.8303858 22.6286263,90.5642629 C19.3055229,74.6319935 23.0701575,59.3853578 25.1732404,52.7149546 C29.8209374,57.9792275 39.3254777,70.4600863 42.6021041,86.4155976 C44.0912936,93.9166397 44.3385889,101.611377 43.3341164,109.192584 C43.2795256,109.613653 43.3481362,110.041522 43.5316435,110.4244 C43.9634113,111.36491 44.9649322,111.906591 45.9882439,111.753072 C47.0115556,111.599553 47.8100944,110.787825 47.9469556,109.762009 C48.8697502,102.70116 48.787599,95.5451582 47.7029515,88.5073616 C47.5402822,87.4847214 47.3659935,86.4737021 47.1568472,85.4743038 C45.2739161,76.9123155 41.9204827,68.7418167 37.2456333,61.32605 C37.2456333,61.2447036 37.2456333,61.1749781 37.3153488,61.1052526 C39.9761826,49.7816465 44.3072551,38.9171612 50.166231,28.8688445 C54.3491582,36.6664761 64.1093219,57.3516983 64.1093219,81.3023966 C64.1093219,89.774041 63.156544,101.906272 58.7412319,112.562648 C58.5437048,113.039106 58.3577969,113.503942 58.1486505,113.968778 C57.9395042,114.433615 57.9046464,114.526582 57.8581695,114.642791 C57.7197559,115.013769 57.683637,115.415148 57.7535963,115.804882 C57.7535963,115.921092 57.7535963,116.037301 57.7535963,116.15351 C57.7535963,117.43712 58.7940187,118.477692 60.0774448,118.477692 L80.9920812,118.477692 C78.0896109,123.316875 75.8687516,128.533515 74.3923515,133.979988 L60.6235492,133.979988 L51.1538666,116.072163 C50.8711646,115.516573 50.3771515,115.097858 49.782796,114.910072 C49.1906602,114.728978 48.5507475,114.791723 48.0050519,115.084386 C40.7654901,118.997119 35.5899065,125.870602 33.829576,133.910262 C31.9024108,142.419135 33.141648,151.338794 37.3153488,158.99981 C44.1707018,171.899022 57.5212114,179.40613 70.534763,177.697856 C71.8181891,177.527778 72.7207555,176.34933 72.5507016,175.06572 C72.3806476,173.782109 71.2023693,172.879413 69.9189432,173.049492 C58.8225666,174.513727 47.3659935,167.982774 41.4285606,156.780216 C37.7858355,150.120885 36.6952626,142.361831 38.3610806,134.956144 C39.661295,129.017026 43.1660011,123.792436 48.1677212,120.337038 L77.9943167,176.733321 L77.9943167,176.733321 C78.0738298,176.874017 78.1672512,177.006383 78.2731785,177.128432 C78.2682591,177.147487 78.2682591,177.16748 78.2731785,177.186536 L78.2731785,177.186536 C78.4007697,177.317594 78.5453632,177.43094 78.7030905,177.523543 L78.7030905,177.523543 L78.7960444,177.523543 C78.9222374,177.593376 79.0544548,177.651715 79.1910987,177.697856 L79.2491949,177.697856 L79.3305296,177.697856 C79.510096,177.737484 79.6928724,177.760821 79.876634,177.767582 L160.107503,177.767582 C160.287909,177.767237 160.46753,177.743805 160.641988,177.697856 L160.641988,177.697856 L160.781419,177.697856 L161.025423,177.604889 L161.211331,177.500301 C161.280842,177.468169 161.347006,177.429243 161.408858,177.384092 L161.583147,177.23302 L161.745816,177.081948 C161.797779,177.028453 161.844471,176.970079 161.885247,176.907634 L162.013059,176.733321 C162.052404,176.669945 162.087344,176.603937 162.117632,176.535765 C162.155424,176.469269 162.18656,176.399204 162.210586,176.326589 C162.239007,176.258699 162.262311,176.188779 162.280302,176.117412 C162.280302,176.047687 162.280302,175.977961 162.280302,175.896615 C162.280302,175.815269 162.280302,175.733922 162.280302,175.652576 C162.280302,175.57123 162.280302,175.547988 162.280302,175.501504 L162.280302,175.4434 L162.280302,175.19936 C162.290676,175.122235 162.290676,175.044067 162.280302,174.966942 C162.287454,174.948234 162.287454,174.927545 162.280302,174.908838 C162.15249,174.420759 159.201202,163.706279 150.33572,160.963744 L150.091716,125.287546 C154.227258,124.101116 157.063658,120.301452 157.025729,115.998685 C156.987801,111.695919 154.084861,107.946861 149.929047,106.833539 L149.789616,94.4107846 C151.232753,94.6594787 152.694063,94.7877505 154.158451,94.7942747 C160.283533,94.7394121 166.214217,92.6367848 171.006353,88.8211262 C174.935688,85.7772696 178.115503,81.8734857 180.301747,77.4093913 C180.55737,77.4093913 180.812993,77.4093913 181.068617,77.4093913 C184.575013,77.5314674 187.868579,75.7302088 189.657962,72.7118591 C191.447346,69.6935094 191.447346,65.9391485 189.657962,62.9207988 C187.868579,59.9024491 184.575013,58.1011906 181.068617,58.2232666 L181.02214,58.2581294 Z M89.2295918,102.839278 L116.659894,54.6949506 C127.645833,62.4833445 130.858702,78.1528512 123.661415,90.7626318 C120.079252,97.1540141 114.177707,101.901522 107.194021,104.009855 C101.26542,105.846251 94.8734177,105.429743 89.2295918,102.839278 Z M67.7333326,95.3931184 C68.3408431,90.6991418 68.6379805,85.9710836 68.6228576,81.2389729 C68.6093771,75.2759555 68.064984,69.3256479 66.9959631,63.4567444 C67.1212319,63.3354015 67.231262,63.199625 67.3236829,63.0523403 C69.6378114,59.456197 72.2240232,56.0379071 75.0602099,52.8266923 C77.178684,59.4473661 80.9825739,74.5951903 77.6351508,90.4709421 C75.9549414,98.0531148 72.9954289,105.302472 68.8803517,111.915917 C68.552632,112.458974 68.2015037,113.002031 67.8620796,113.545088 L63.0867347,113.545088 C65.385422,107.706702 66.942253,101.609572 67.7216283,95.3931184 L67.7333326,95.3931184 Z M63.0867347,138.766575 L73.3571429,138.766575 C72.2654383,144.620509 72.0372173,150.597592 72.6794595,156.515029 L63.0867347,138.766575 Z M152.719388,116.808506 C152.699672,119.641101 150.411026,121.93251 147.581849,121.95225 C146.863057,121.949026 146.152707,121.796918 145.495478,121.505493 C143.661155,120.693876 142.470037,118.88361 142.449256,116.875835 C142.428475,114.868059 143.581868,113.033468 145.398998,112.183966 C146.077973,111.849082 146.824959,111.675538 147.581849,111.67683 C148.514266,111.678232 149.428204,111.937285 150.222978,112.425457 C151.762826,113.349437 152.709269,115.011147 152.719388,116.808506 L152.719388,116.808506 Z M177.687486,72.0010692 C176.15346,70.5629164 175.648885,68.3338683 176.413657,66.3737096 C177.178429,64.4135509 179.05826,63.117734 181.159397,63.1023456 C183.772828,63.0776223 185.98594,65.0270749 186.295258,67.6263447 C186.604576,70.2256144 184.910941,72.6414445 182.364922,73.2326429 C181.969707,73.3256708 181.565367,73.3742681 181.159397,73.3775339 C179.855496,73.3654977 178.605237,72.8559697 177.663375,71.9527722 L177.687486,72.0010692 Z" id="Shape" fill="#41EA99" fill-rule="nonzero"></path>
        <path d="M149.072081,77.0517833 C149.491863,77.650516 150.122299,77.9987694 150.788619,78 C151.64212,77.9984257 152.418901,77.4295601 152.785391,76.5376887 C153.151881,75.6458172 153.042865,74.5896456 152.505158,73.822721 C148.786907,68.1354363 142.420689,65.6936748 136.502589,67.68494 C135.752829,67.9802151 135.196168,68.7158735 135.042293,69.6147998 C134.888419,70.5137262 135.160709,71.4393521 135.756595,72.0430034 C136.352481,72.6466547 137.181432,72.8366222 137.931192,72.5413471 C142.092488,71.269593 146.503856,73.0555539 149.072081,77.0517833 Z" id="Path" fill="#41EA99"></path>
    </g>
</svg>